<?xml version="1.0" encoding="utf-8"?>
<!-- Generated by IcoMoon.io -->
<!DOCTYPE svg PUBLIC "-//W3C//DTD SVG 1.1//EN" "http://www.w3.org/Graphics/SVG/1.1/DTD/svg11.dtd">
<svg version="1.1" xmlns="http://www.w3.org/2000/svg" xmlns:xlink="http://www.w3.org/1999/xlink" width="768" height="768" viewBox="0 0 768 768">
<g id="icomoon-ignore">
</g>
<path d="M224 576c-35.36 0-63.68 28.64-63.68 64s28.32 64 63.68 64 64-28.64 64-64-28.64-64-64-64zM32 64v64h64l115.040 242.72-43.2 78.4c-4.96 9.28-7.84 19.68-7.84 30.88 0 35.36 28.64 64 64 64h384v-64h-370.4c-4.48 0-8-3.52-8-8 0-1.44 0.32-2.72 0.96-3.84l28.64-52.16h238.4c24 0 44.96-13.28 56-32.96l114.4-207.68c2.56-4.48 4-9.76 4-15.36 0-17.76-14.4-32-32-32h-473.12l-30.4-64h-104.48zM544 576c-35.36 0-63.68 28.64-63.68 64s28.32 64 63.68 64 64-28.64 64-64-28.64-64-64-64z"></path>
</svg>
