<?xml version="1.0" encoding="utf-8"?>
<!DOCTYPE svg PUBLIC "-//W3C//DTD SVG 1.1//EN" "http://www.w3.org/Graphics/SVG/1.1/DTD/svg11.dtd">

<svg version="1.1" xmlns="http://www.w3.org/2000/svg" xmlns:xlink="http://www.w3.org/1999/xlink">

	<symbol id="icon-cart" viewBox="0 0 1024 1024">
		<path class="main" d="M298.667 768c-47.147 0-84.907 38.187-84.907 85.333s37.76 85.333 84.907 85.333 85.333-38.187 85.333-85.333-38.187-85.333-85.333-85.333zM42.667 85.333v85.333h85.333l153.387 323.627-57.6 104.533c-6.613 12.373-10.453 26.24-10.453 41.173 0 47.147 38.187 85.333 85.333 85.333h512v-85.333h-493.867c-5.973 0-10.667-4.693-10.667-10.667 0-1.92 0.427-3.627 1.28-5.12l38.187-69.547h317.867c32 0 59.947-17.707 74.667-43.947l152.533-276.907c3.413-5.973 5.333-13.013 5.333-20.48 0-23.68-19.2-42.667-42.667-42.667h-630.827l-40.533-85.333h-139.307zM725.333 768c-47.147 0-84.907 38.187-84.907 85.333s37.76 85.333 84.907 85.333 85.333-38.187 85.333-85.333-38.187-85.333-85.333-85.333z"></path>
	</symbol>


</svg>
