<?xml version="1.0" encoding="UTF-8" standalone="no"?>
<!-- Created with Inkscape (http://www.inkscape.org/) -->

<svg
   xmlns:dc="http://purl.org/dc/elements/1.1/"
   xmlns:cc="http://creativecommons.org/ns#"
   xmlns:rdf="http://www.w3.org/1999/02/22-rdf-syntax-ns#"
   xmlns:svg="http://www.w3.org/2000/svg"
   xmlns="http://www.w3.org/2000/svg"
   version="1.2"
   width="196.39819"
   height="72.646004"
   id="svg2">
  <defs
     id="defs4" />
  <metadata
     id="metadata7">
    <rdf:RDF>
      <cc:Work
         rdf:about="">
        <dc:format>image/svg+xml</dc:format>
        <dc:type
           rdf:resource="http://purl.org/dc/dcmitype/StillImage" />
        <dc:title></dc:title>
      </cc:Work>
    </rdf:RDF>
  </metadata>
  <g
     transform="translate(-89.210693,-272.12852)"
     id="layer1">
    <g
       id="flowRoot2985"
       style="font-size:40px;font-style:normal;font-weight:normal;line-height:125%;letter-spacing:0px;word-spacing:0px;fill:#9b108b;fill-opacity:1;stroke:none;font-family:Sans">
      <path
         d="m 173.52197,277.45469 c -8e-5,0.8643 -0.28792,1.29643 -0.86352,1.29639 -0.0968,4e-5 -0.57687,-0.0959 -1.44031,-0.28784 -0.86361,-0.19186 -1.5356,-0.2878 -2.01599,-0.28784 -5.7115,4e-5 -10.31916,1.63187 -13.823,4.8955 -2.01715,1.87211 -3.81745,4.32059 -5.40088,7.34546 -0.95953,1.82376 -4.6795,9.98366 -11.15991,24.47974 1.43989,0.28711 2.30415,0.43067 2.59277,0.43066 4.89545,1e-5 8.4953,-4.12792 10.79956,-12.38379 0.14349,0.72072 0.26361,1.22463 0.36035,1.51172 -0.14508,2.209 -1.27301,4.63331 -3.38378,7.27295 -2.40094,2.97657 -5.01715,4.46485 -7.84864,4.46485 -0.62407,0 -1.60845,-0.096 -2.95312,-0.28785 -2.59136,5.61475 -6.23882,10.05469 -10.94238,13.31983 -4.94389,3.45555 -10.4158,5.18333 -16.41578,5.18335 -6.43214,-2e-5 -11.676277,-2.08815 -15.732418,-6.26441 -4.056155,-4.17627 -6.084229,-9.48046 -6.084229,-15.91259 0,-4.12792 0.67163,-7.51171 2.014893,-10.15137 0.62402,-1.10447 1.560054,-2.73631 2.808105,-4.89551 1.007806,-4.89548 2.640373,-9.02341 4.897705,-12.38379 4.223134,-6.33687 10.174784,-9.50533 17.854984,-9.50537 5.56783,4e-5 10.24801,1.752 14.04052,5.25586 1.34322,-1.05465 2.32686,-1.84639 2.95093,-2.37524 5.80806,-4.03121 12.60053,-6.04683 20.37744,-6.04688 4.75189,5e-5 8.85564,0.64751 12.31128,1.94238 l 5.18335,1.94458 c 1.24796,0.1436 1.87199,0.62334 1.87207,1.43921 z m -3.59912,-0.43066 0,-0.57569 c -0.19197,-0.38374 -1.89632,-1.03193 -5.11304,-1.94458 -3.79108,-1.0561 -7.34259,-1.58418 -10.65454,-1.58422 -5.71295,4e-5 -11.13726,1.34404 -16.27295,4.03198 -1.19975,0.62406 -3.33549,2.03983 -6.40722,4.24731 1.29488,1.43998 2.49458,3.36039 3.59912,5.76123 l -0.57568,0.57569 c -0.86431,-2.16061 -2.04058,-4.05685 -3.52881,-5.68872 -2.11088,1.72855 -4.10234,5.04056 -5.97437,9.93603 1.91891,1.96878 3.14278,3.38528 3.67163,4.24951 1.82369,2.87991 2.73556,6.11941 2.7356,9.71851 -4e-5,1.34474 -0.28789,3.36109 -0.86353,6.04907 0.81588,0.71925 1.41573,1.07887 1.79956,1.07886 l 7.27295,-16.05542 c 2.06391,-4.46335 4.12788,-7.89548 6.1919,-10.29639 2.44769,-2.87984 5.63958,-5.23165 9.57568,-7.05542 1.91888,-0.86421 3.95867,-1.48824 6.11939,-1.87207 1.87199,-0.3354 4.68009,-0.5273 8.42431,-0.57568 z m -39.60132,4.1748 c -0.81596,-0.95943 -2.32767,-1.96724 -4.53515,-3.02343 -3.02347,-1.4399 -6.02347,-2.15987 -9,-2.15992 -7.19973,5e-5 -12.86354,3.09599 -16.991458,9.28785 -1.536631,2.25589 -3.072518,5.90408 -4.607666,10.94458 1.775382,-2.73631 3.743398,-4.7761 5.904054,-6.11939 3.02342,-1.92038 6.98289,-2.88058 11.87842,-2.88061 3.36032,3e-5 7.08029,1.34402 11.15991,4.03198 0.52877,-1.24802 1.24874,-2.68796 2.15991,-4.31983 1.72848,-3.12008 3.07247,-5.04049 4.03198,-5.76123 z m 0.0725,24.55225 c -4e-5,-5.08738 -1.89554,-9.38303 -5.68652,-12.88696 -0.38529,2.59133 -0.57792,4.75124 -0.57788,6.47973 -4e-5,3.98439 1.80025,7.84865 5.40088,11.59278 0.57564,-1.82519 0.86348,-3.5537 0.86352,-5.18555 z m -1.3667,6.2644 c -3.88919,-3.98436 -5.83377,-8.20823 -5.83374,-12.67163 -3e-5,-1.58347 0.21603,-3.95945 0.6482,-7.12793 -4.17484,-2.73629 -7.79886,-4.10446 -10.87207,-4.10449 -5.56789,3e-5 -10.03127,1.3682 -13.39014,4.10449 -1.393076,1.10452 -2.809579,2.90408 -4.249512,5.39868 -7e-6,7.34475 1.7882,13.11696 5.364622,17.31666 3.5764,4.1997 7.90831,6.29955 12.99573,6.29956 5.56784,-10e-6 10.12789,-2.18409 13.68018,-6.55225 1.10445,-1.34326 1.65669,-2.23095 1.65673,-2.66309 z m 2.80811,1.94458 c -0.43217,-0.43212 -1.0562,-0.86425 -1.87207,-1.29638 -3.98441,6.28857 -9.40872,9.43286 -16.27295,9.43286 -5.95168,0 -10.79958,-2.52027 -14.543701,-7.56079 -3.216805,-4.31982 -4.825202,-9.07177 -4.825196,-14.25586 -6e-6,-0.52879 0.04833,-1.22459 0.14502,-2.0874 -2.928226,4.56007 -4.392336,9.23951 -4.392334,14.03833 -2e-6,5.95312 2.003902,10.98156 6.011718,15.08532 4.007803,4.10375 8.988263,6.15563 14.941403,6.15564 4.60691,-1e-5 9.02268,-2.32838 13.24732,-6.98511 3.40719,-3.79101 5.92745,-7.96655 7.56079,-12.52661 z"
         id="path3793"
         style="font-size:72px;font-variant:normal;font-stretch:normal;fill:#9b108b;fill-opacity:1;font-family:ChopinScript;-inkscape-font-specification:ChopinScript" />
      <path
         d="m 184.427,304.09654 c -1.63186,2.01564 -4.58352,4.22315 -8.85498,6.62256 -0.72072,0.28858 -1.80104,0.64893 -3.24097,1.08105 -1.48829,2.44776 -3.52808,4.53589 -6.11938,6.26441 -2.78468,1.82373 -5.49683,2.73559 -8.13647,2.73559 -1.63184,0 -2.97583,-0.71997 -4.03199,-2.15991 -0.95947,-1.29638 -1.4392,-2.78466 -1.43921,-4.46484 10e-6,-4.07958 1.6919,-7.7633 5.07569,-11.05115 3.38378,-3.28782 7.11547,-4.93174 11.19507,-4.93176 1.68016,2e-5 3.07212,0.64784 4.1759,1.94348 1.10374,1.29567 1.65562,2.9037 1.65564,4.82409 -2e-5,1.15138 -0.21608,2.25514 -0.64819,3.31128 -0.19192,0.48048 -0.55154,1.2964 -1.07886,2.44776 0.38377,-0.0483 1.10374,-0.31201 2.15991,-0.79102 2.59129,-1.19969 5.49534,-3.312 8.71216,-6.33691 z m -14.04053,-3.24097 c -1e-5,-1.19969 -0.57569,-1.79954 -1.72705,-1.79956 -2.25587,2e-5 -4.8479,2.51955 -7.77612,7.55859 -2.78467,4.70509 -4.177,8.32911 -4.177,10.87207 0,1.58497 0.4563,2.37745 1.3689,2.37745 2.49608,0 5.47191,-2.87988 8.92749,-8.63965 -2.63966,-0.86425 -3.95948,-2.04052 -3.95948,-3.52881 0,-1.53661 0.74414,-2.30492 2.23242,-2.30493 1.00781,10e-6 1.51171,0.50465 1.51172,1.51391 -1e-5,0.81593 -0.6482,1.29567 -1.94458,1.43921 0.33691,1.19972 1.24877,1.91969 2.7356,2.15991 1.87206,-3.98436 2.80809,-7.20042 2.8081,-9.64819 z"
         id="path3795"
         style="font-size:72px;font-variant:normal;font-stretch:normal;fill:#9b108b;fill-opacity:1;font-family:ChopinScript;-inkscape-font-specification:ChopinScript" />
      <path
         d="m 211.94116,304.09654 c -1.92044,1.91896 -5.08816,4.94239 -9.50317,9.07031 -1.15285,1.1045 -2.9048,2.7605 -5.25586,4.96802 -1.4883,1.34473 -3.64894,2.80884 -6.48193,4.39233 -0.8628,1.72851 -2.2068,4.34472 -4.03199,7.84864 -1.72705,3.26365 -3.43066,5.75974 -5.11084,7.48828 -2.20751,2.25584 -4.63183,3.38376 -7.27295,3.38379 -1.63182,-3e-5 -3.0117,-0.5281 -4.13964,-1.58423 -1.12792,-1.05617 -1.69188,-2.376 -1.6919,-3.95948 2e-5,-2.83302 1.84791,-5.37745 5.5437,-7.6333 2.44776,-1.48682 6.31202,-3.07031 11.59278,-4.75048 l 3.02343,-6.04908 c -3.12012,2.35254 -5.47192,3.52881 -7.05542,3.52881 -2.54443,0 -3.81664,-1.6084 -3.81665,-4.82519 1e-5,-1.43994 0.40797,-2.92749 1.22388,-4.46265 l 5.83374,-10.94458 c 0.62256,-1.15135 1.29419,-1.72703 2.01489,-1.72705 0.38379,2e-5 0.91186,0.096 1.58423,0.28784 0.67236,0.19192 1.08032,0.28786 1.22388,0.28784 0.19189,2e-5 0.61193,-0.33616 1.26013,-1.00854 0.64818,-0.67234 1.0924,-1.03269 1.33264,-1.08106 l -8.78467,16.41577 c -0.76757,1.44142 -1.15136,2.61768 -1.15136,3.52881 0,1.34473 0.33545,2.01709 1.00634,2.01709 0.67237,0 1.75269,-0.43213 3.24097,-1.29638 1.92041,-1.10449 3.28857,-2.40088 4.10449,-3.88916 l 7.5586,-13.53516 c 0.624,-1.15135 1.29637,-1.72703 2.01709,-1.72705 0.38377,2e-5 0.8635,0.096 1.43921,0.28784 0.57566,0.19192 0.96018,0.28786 1.15356,0.28784 0.19187,2e-5 0.62364,-0.33616 1.29529,-1.00854 0.67161,-0.67234 1.12754,-1.03269 1.3678,-1.08106 l -4.75269,9.14502 c -2.83156,5.27931 -5.95167,10.27149 -9.36035,14.97656 1.77684,-1.00781 3.62547,-2.40014 5.5459,-4.177 1.63182,-1.58349 3.28782,-3.16772 4.96801,-4.75268 l 9.50318,-8.92749 z m -26.56714,19.94238 c -5.37597,1.92041 -9.0725,3.45629 -11.0896,4.60767 -3.50389,2.06395 -5.25584,4.39232 -5.25586,6.9851 2e-5,2.01561 1.00856,3.02342 3.02564,3.02344 2.25587,-2e-5 4.84791,-1.9922 7.77612,-5.97656 1.00782,-1.29493 2.85572,-4.17481 5.5437,-8.63965 z"
         id="path3797"
         style="font-size:72px;font-variant:normal;font-stretch:normal;fill:#9b108b;fill-opacity:1;font-family:ChopinScript;-inkscape-font-specification:ChopinScript" />
      <path
         d="m 237.05591,279.03892 c -3e-5,2.92826 -1.63186,6.52884 -4.89551,10.80176 -3.55226,4.60696 -7.89625,8.25442 -13.03198,10.94238 l 3.95947,0 -0.7207,1.29639 -5.11084,0 c -3.26368,6.43214 -6.52808,12.86426 -9.79322,19.29639 -4.60692,8.59129 -8.3745,14.47117 -11.30273,17.63964 -3.50389,3.83934 -7.15208,5.75901 -10.94458,5.75904 -2.06394,-3e-5 -3.76792,-0.62368 -5.11194,-1.87097 -1.34396,-1.24734 -2.01596,-2.78359 -2.01599,-4.60877 3e-5,-1.91896 0.67203,-3.65846 2.01599,-5.21851 1.34402,-1.56007 2.95206,-2.34009 4.8241,-2.34008 0.91116,-1e-5 1.72707,0.37206 2.44775,1.11621 0.72073,0.74413 1.08108,1.59593 1.08106,2.55542 2e-5,0.91111 -0.38414,1.70286 -1.15247,2.37524 -0.76829,0.67235 -1.70469,1.00853 -2.8092,1.00855 -0.86423,-2e-5 -1.65598,-0.62404 -2.37525,-1.87207 1.48831,-0.19191 2.23245,-0.5757 2.23242,-1.15137 3e-5,-1.24806 -0.50387,-1.87208 -1.51171,-1.87207 -0.91257,-10e-6 -1.801,0.79173 -2.66529,2.37524 -0.7192,1.39159 -1.07882,2.61546 -1.07885,3.67163 3e-5,1.39305 0.61196,2.5814 1.83581,3.56507 1.22391,0.98362 2.65176,1.47544 4.28357,1.47546 2.78469,-2e-5 5.49685,-1.9197 8.13647,-5.75903 1.63186,-2.30422 4.24733,-7.32057 7.84644,-15.04907 4.6084,-9.79248 8.08887,-16.82445 10.44141,-21.09595 l -4.24732,0 0.71851,-1.29639 4.31982,0 c 3.16845,-5.42429 6.38452,-10.24802 9.6482,-14.47119 5.18406,-6.62398 9.24021,-9.93599 12.16845,-9.93603 0.67234,4e-5 1.30845,0.27616 1.90833,0.82836 0.59983,0.55229 0.89975,1.16386 0.89978,1.83472 z m -2.80811,0.57568 c -2e-5,-1.39156 -0.40798,-2.08736 -1.22387,-2.0874 -1.15286,4e-5 -3.69656,3.24028 -7.63111,9.72071 -3.26515,5.376 -5.71363,9.88771 -7.34546,13.53515 5.51952,-4.07957 9.76756,-8.32761 12.74414,-12.74414 2.30418,-3.40719 3.45628,-6.21529 3.4563,-8.42432 z"
         id="path3799"
         style="font-size:72px;font-variant:normal;font-stretch:normal;fill:#9b108b;fill-opacity:1;font-family:ChopinScript;-inkscape-font-specification:ChopinScript" />
      <path
         d="m 258.89453,304.09654 c -2.63968,3.88771 -5.3511,7.22315 -8.13428,10.00635 -4.5132,4.46484 -8.44923,6.69726 -11.8081,6.69726 -2.44923,0 -3.86573,-1.99218 -4.24951,-5.97656 -2.11085,2.44776 -3.57496,3.98364 -4.39234,4.60767 -1.19971,0.91259 -2.66308,1.36889 -4.39013,1.36889 -2.44922,0 -3.67383,-1.17627 -3.67383,-3.52881 0,-2.15917 0.79248,-4.70287 2.37744,-7.6311 l 5.32837,-9.79321 c 0.38378,-0.67088 1.03124,-1.00633 1.94238,-1.00635 0.0483,2e-5 0.3966,0.0839 1.0448,0.25159 0.64819,0.16774 1.0924,0.2516 1.33264,0.25158 0.24023,2e-5 0.68408,-0.32407 1.33155,-0.97229 0.64745,-0.64817 1.06712,-0.99643 1.25903,-1.0448 l -8.56714,16.12793 c -0.81592,1.53663 -1.22388,2.88062 -1.22388,4.03198 0,1.24805 0.59986,1.87208 1.79956,1.87208 0.86426,0 2.40015,-1.3916 4.60767,-4.17481 1.72851,-2.20751 3.00072,-4.0078 3.81665,-5.40088 l 5.61621,-10.00854 c 0.33543,-0.62254 0.88768,-0.93382 1.65674,-0.93384 0.28709,2e-5 0.74266,0.0839 1.3667,0.25159 0.624,0.16774 1.03196,0.2516 1.22388,0.25158 0.19187,2e-5 0.59983,-0.32407 1.22387,-0.97229 0.624,-0.64817 1.0803,-0.99643 1.3689,-1.0448 l -9.14502,17.20899 c -0.76759,1.43994 -1.15138,2.49609 -1.15137,3.16845 -1e-5,0.95948 0.62401,1.43921 1.87207,1.43921 2.11229,0 5.23241,-2.13574 9.36035,-6.40722 2.9282,-3.0249 5.4719,-6.07323 7.63111,-9.14502 z"
         id="path3801"
         style="font-size:72px;font-variant:normal;font-stretch:normal;fill:#9b108b;fill-opacity:1;font-family:ChopinScript;-inkscape-font-specification:ChopinScript" />
      <path
         d="m 285.60889,274.86412 c -0.0484,2.83158 -1.72855,6.71927 -5.04053,11.66308 -4.12795,6.19192 -9.40797,11.15994 -15.84009,14.90406 l -3.4563,7.56079 c -1.48828,3.26368 -2.23242,6.14356 -2.23242,8.63964 0,1.15137 0.50464,1.72706 1.51392,1.72706 2.30273,0 5.13427,-2.11157 8.49463,-6.33472 2.40086,-2.97655 4.46482,-6.12084 6.19189,-9.43286 l 0.57568,0.50537 c -2.688,4.79884 -4.96803,8.30274 -6.84008,10.51172 -3.40724,3.98291 -6.8628,6.04687 -10.3667,6.19189 -1.29639,0.0483 -2.32837,-0.47974 -3.09595,-1.58423 -0.76758,-1.10449 -1.15136,-2.5686 -1.15137,-4.39233 1e-5,-3.83935 2.01563,-9.31127 6.04688,-16.41577 2.5913,-4.56004 5.99926,-9.55222 10.22387,-14.97656 5.80809,-7.4399 10.05613,-11.15987 12.74414,-11.15992 0.57566,5e-5 1.09165,0.26409 1.54798,0.79212 0.45627,0.52812 0.68442,1.12834 0.68445,1.80066 z m -3.09595,0.43066 c -3e-5,-1.00777 -0.33621,-1.51167 -1.00855,-1.51172 -1.10451,5e-5 -3.54054,3.16814 -7.3081,9.50427 -3.76759,6.33622 -6.41969,11.59244 -7.9563,15.76868 4.0327,-2.35252 7.87279,-6.52878 11.52026,-12.52881 3.16844,-5.18404 4.75266,-8.92818 4.75269,-11.23242 z"
         id="path3803"
         style="font-size:72px;font-variant:normal;font-stretch:normal;fill:#9b108b;fill-opacity:1;font-family:ChopinScript;-inkscape-font-specification:ChopinScript" />
    </g>
    <flowRoot
       id="flowRoot2993"
       xml:space="preserve"
       style="font-size:40px;font-style:normal;font-weight:normal;line-height:125%;letter-spacing:0px;word-spacing:0px;fill:#000000;fill-opacity:1;stroke:none;font-family:Sans"><flowRegion
         id="flowRegion2995"><rect
           width="5.7142859"
           height="134.28572"
           x="240"
           y="286.64789"
           id="rect2997" /></flowRegion><flowPara
         id="flowPara2999"></flowPara></flowRoot>    <g
       transform="translate(-97,-43)"
       id="flowRoot3001"
       style="font-size:14px;font-style:normal;font-variant:normal;font-weight:normal;font-stretch:normal;line-height:125%;letter-spacing:0px;word-spacing:0px;fill:#000000;fill-opacity:1;stroke:none;font-family:Segoe UI;-inkscape-font-specification:Segoe UI">
      <path
         d="m 309.28516,383.2865 0,-9.80274 2.78906,0 c 0.84765,10e-6 1.51985,0.20737 2.0166,0.62207 0.49674,0.41472 0.74511,0.95476 0.74512,1.62012 -10e-6,0.556 -0.1504,1.03907 -0.45117,1.44922 -0.30079,0.41016 -0.7155,0.70183 -1.24415,0.875 l 0,0.0273 c 0.66081,0.0775 1.18945,0.32699 1.58594,0.74854 0.39648,0.42155 0.59472,0.96956 0.59473,1.64404 -10e-6,0.83854 -0.30079,1.51758 -0.90234,2.03711 -0.60157,0.51953 -1.36036,0.7793 -2.27637,0.7793 z m 1.14843,-8.76368 0,3.16504 1.17578,0 c 0.62891,10e-6 1.12337,-0.15152 1.4834,-0.45459 0.36002,-0.30305 0.54004,-0.7303 0.54004,-1.28173 0,-0.95247 -0.62663,-1.42871 -1.87988,-1.42872 z m 0,4.19727 0,3.52734 1.5586,0 c 0.67447,0 1.19742,-0.1595 1.56885,-0.47851 0.37141,-0.31901 0.55712,-0.75651 0.55712,-1.3125 0,-1.15755 -0.78841,-1.73633 -2.36523,-1.73633 z"
         id="path3778" />
      <path
         d="m 323.69531,373.48376 -3.2334,6.17969 0,3.62305 -1.14843,0 0,-3.59571 -3.15137,-6.20703 1.30566,0 2.19434,4.42969 c 0.0273,0.0547 0.10709,0.25521 0.23926,0.60156 l 0.0205,0 c 0.0456,-0.15494 0.13216,-0.35546 0.25977,-0.60156 l 2.29688,-4.42969 z"
         id="path3780" />
      <path
         d="m 331.39941,379.77282 c 0,1.16212 -0.24609,2.0656 -0.73828,2.71045 -0.49219,0.64486 -1.15072,0.96729 -1.97558,0.96729 -0.38282,0 -0.69727,-0.0547 -0.94336,-0.16406 l 0,-1.13477 c 0.24609,0.17774 0.5651,0.2666 0.95703,0.2666 1.0345,0 1.55175,-0.87727 1.55176,-2.63183 l 0,-6.30274 1.14843,0 z"
         id="path3782" />
      <path
         d="m 337.8457,383.45056 c -1.38997,0 -2.50309,-0.45801 -3.33935,-1.37402 -0.83627,-0.91602 -1.2544,-2.10775 -1.2544,-3.5752 0,-1.57682 0.42611,-2.83463 1.27832,-3.77344 0.85221,-0.93879 2.01204,-1.40819 3.4795,-1.4082 1.3535,10e-6 2.44384,0.45574 3.27099,1.36719 0.82714,0.91146 1.24071,2.10319 1.24072,3.57519 -10e-6,1.59962 -0.42383,2.86426 -1.27148,3.79395 -0.84766,0.92969 -1.98243,1.39453 -3.4043,1.39453 z m 0.082,-9.0918 c -1.02995,10e-6 -1.86621,0.37143 -2.50878,1.11426 -0.64258,0.74285 -0.96387,1.7181 -0.96387,2.92578 0,1.20769 0.31331,2.17953 0.93994,2.91553 0.62662,0.736 1.44352,1.104 2.45068,1.104 1.07552,0 1.92317,-0.35091 2.54297,-1.05273 0.61979,-0.70182 0.92968,-1.68392 0.92969,-2.94629 -10e-6,-1.29427 -0.30079,-2.29459 -0.90234,-3.00098 -0.60157,-0.70637 -1.431,-1.05956 -2.48829,-1.05957 z"
         id="path3784" />
      <path
         d="m 348.40039,383.45056 c -1.38998,0 -2.50309,-0.45801 -3.33935,-1.37402 -0.83627,-0.91602 -1.2544,-2.10775 -1.2544,-3.5752 0,-1.57682 0.42611,-2.83463 1.27832,-3.77344 0.85221,-0.93879 2.01204,-1.40819 3.47949,-1.4082 1.35351,10e-6 2.44384,0.45574 3.271,1.36719 0.82714,0.91146 1.24071,2.10319 1.24072,3.57519 -10e-6,1.59962 -0.42384,2.86426 -1.27148,3.79395 -0.84767,0.92969 -1.98243,1.39453 -3.4043,1.39453 z m 0.082,-9.0918 c -1.02995,10e-6 -1.86621,0.37143 -2.50879,1.11426 -0.64258,0.74285 -0.96387,1.7181 -0.96386,2.92578 -1e-5,1.20769 0.31331,2.17953 0.93994,2.91553 0.62662,0.736 1.44351,1.104 2.45068,1.104 1.07552,0 1.92317,-0.35091 2.54297,-1.05273 0.61978,-0.70182 0.92968,-1.68392 0.92969,-2.94629 -10e-6,-1.29427 -0.30079,-2.29459 -0.90235,-3.00098 -0.60157,-0.70637 -1.43099,-1.05956 -2.48828,-1.05957 z"
         id="path3786" />
      <path
         d="m 362.90625,383.2865 -1.4082,0 -5.04493,-7.81348 c -0.1276,-0.19596 -0.23242,-0.40103 -0.31445,-0.61523 l -0.041,0 c 0.0365,0.20964 0.0547,0.65853 0.0547,1.34668 l 0,7.08203 -1.14843,0 0,-9.80274 1.49023,0 4.9082,7.69043 c 0.20507,0.31901 0.33724,0.53776 0.39649,0.65625 l 0.0273,0 c -0.0456,-0.28255 -0.0684,-0.76334 -0.0684,-1.44238 l 0,-6.9043 1.14844,0 z"
         id="path3788" />
      <path
         d="m 373.06445,383.2865 -1.27148,0 -1.03906,-2.74805 -4.15625,0 -0.97754,2.74805 -1.27832,0 3.75976,-9.80274 1.18946,0 z m -2.68652,-3.78028 -1.53809,-4.17675 c -0.0501,-0.13672 -0.10026,-0.35547 -0.15039,-0.65625 l -0.0273,0 c -0.0456,0.278 -0.098,0.49675 -0.15723,0.65625 l -1.52441,4.17675 z"
         id="path3790" />
    </g>
  </g>
</svg>
